<svg xmlns="http://www.w3.org/2000/svg" viewBox="0 0 163.01 65.61"><defs><style>.cls-1{fill:#fff;}.cls-2{fill:#009030;}</style></defs><g id="Capa_2" data-name="Capa 2"><g id="Capa_1-2" data-name="Capa 1"><path class="cls-1" d="M34.31,21c.65-6.16,7-15.31,7-15.31L34.09,2.82,26.82,0s-1.45,11.07-5.13,16.06a15.28,15.28,0,0,1-6.07-2.74s0,1.83,5.59,4.13,6.26,2.43,6.26,2.43.58.35,6.25,2.43,6.92.73,6.92.73A15.26,15.26,0,0,1,34.31,21Z"/><path class="cls-2" d="M16.64,59A27.14,27.14,0,0,1,0,53.15l4.7-7.24A26,26,0,0,0,11,49.38a17,17,0,0,0,5.9,1.16,6.16,6.16,0,0,0,3.51-.79,2.45,2.45,0,0,0,1.12-2.1V47.5A2.11,2.11,0,0,0,20.91,46a5.67,5.67,0,0,0-1.77-1.12c-.75-.31-1.61-.61-2.57-.9l-3-.94c-1.35-.39-2.71-.86-4.09-1.41a14.76,14.76,0,0,1-3.72-2.17A10.67,10.67,0,0,1,3,36.14a10,10,0,0,1-1-4.77v-.15A11.84,11.84,0,0,1,3.07,26a11.78,11.78,0,0,1,3-3.87,13,13,0,0,1,4.49-2.39,18.62,18.62,0,0,1,5.53-.8,24.76,24.76,0,0,1,7.49,1.2,27.29,27.29,0,0,1,7,3.29L26.41,31a34.57,34.57,0,0,0-5.64-2.64,14.58,14.58,0,0,0-4.85-1,5,5,0,0,0-3,.76,2.29,2.29,0,0,0-1,1.92v.14a1.87,1.87,0,0,0,.65,1.41,7.12,7.12,0,0,0,1.73,1.16,24.52,24.52,0,0,0,2.5,1c.94.34,1.94.67,3,1,1.35.44,2.73.95,4.13,1.56a17.36,17.36,0,0,1,3.76,2.2,11,11,0,0,1,2.75,3.19,9,9,0,0,1,1.08,4.56v.14a12.91,12.91,0,0,1-1.12,5.61A10.37,10.37,0,0,1,27.2,56a14.34,14.34,0,0,1-4.73,2.28A21.85,21.85,0,0,1,16.64,59Z"/><path class="cls-1" d="M23,64,12.94,12.81a1.35,1.35,0,0,0-.56-.84,1.32,1.32,0,0,0-1-.2,1.35,1.35,0,0,0-.84.56,1.28,1.28,0,0,0-.2,1L20.44,64.54a1.33,1.33,0,0,0,.56.84,1.36,1.36,0,0,0,.7.23,1.43,1.43,0,0,0,.29,0A1.32,1.32,0,0,0,23,64Z"/><circle class="cls-1" cx="11.52" cy="12.08" r="3.93"/><path class="cls-2" d="M27.64,38.6a17.36,17.36,0,0,0-3.76-2.2c-1.4-.61-2.78-1.12-4.13-1.56-1.06-.34-2.06-.67-3-1a24.52,24.52,0,0,1-2.5-1,7.12,7.12,0,0,1-1.73-1.16l0-.05H10.59V19.72a13,13,0,0,0-4.48,2.39,11.78,11.78,0,0,0-3,3.87A11.84,11.84,0,0,0,2,31.22v.15A10,10,0,0,0,3,36.14a10.67,10.67,0,0,0,2.72,3.3,14.76,14.76,0,0,0,3.72,2.17c1.38.55,2.74,1,4.09,1.41l3,.94c1,.29,1.82.59,2.57.9A5.67,5.67,0,0,1,20.91,46a2.11,2.11,0,0,1,.65,1.52v.15a2.45,2.45,0,0,1-1.12,2.1,6.16,6.16,0,0,1-3.51.79A17,17,0,0,1,11,49.38,26,26,0,0,1,4.7,45.91L0,53.15A27.14,27.14,0,0,0,16.64,59a21.85,21.85,0,0,0,5.83-.76A14.34,14.34,0,0,0,27.2,56a10.37,10.37,0,0,0,3.15-3.87,12.91,12.91,0,0,0,1.12-5.61v-.14a9,9,0,0,0-1.08-4.56A11,11,0,0,0,27.64,38.6Z"/><path class="cls-1" d="M79.64,17H93.91v2.65H79.64Zm5.83,4H88.1v8.6H85.47Z"/><path class="cls-1" d="M106.8,17h2.62v12.6H106.8v-5h-9v5H95.17V17H97.8v5h9Z"/><path class="cls-1" d="M110.68,17h13.57v2.4H110.68Zm2.65,3.75V22h4.22l4.77,0v2.41h-9v2.83h10.92v2.39H110.68V20.73Z"/><path class="cls-2" d="M59.84,33.07V45.66H57.22V35.71l-5.37,9.95h-3l-5.36-9.95v9.95H40.88V33.07h4.19l5.29,9.82,5.29-9.82Z"/><path class="cls-2" d="M61.89,45.08a2.11,2.11,0,0,1-.79-1.72V36.81h2.63v5.47A1.34,1.34,0,0,0,64,43a.91.91,0,0,0,.58.23h7.38a1.82,1.82,0,0,0,.54-.06.58.58,0,0,0,.28-.31,2.08,2.08,0,0,0,.11-.78V36.7a2.51,2.51,0,0,0-.1-.84.51.51,0,0,0-.29-.34,1.82,1.82,0,0,0-.54-.06H61.1a2.41,2.41,0,0,1,.83-1.74,2.59,2.59,0,0,1,1.76-.65h9.16a2.91,2.91,0,0,1,1.79.54,2.12,2.12,0,0,1,.73,1.83v7.85a2.12,2.12,0,0,1-.73,1.83,2.91,2.91,0,0,1-1.79.54H63.71A2.89,2.89,0,0,1,61.89,45.08Z"/><path class="cls-2" d="M76.63,33.07h4.12l7.16,10.2V33.07h2.63V45.66H86.42l-7.16-10.2v10.2H76.63Z"/><path class="cls-2" d="M92.58,45.08a2.08,2.08,0,0,1-.78-1.72V36.81h2.63v5.47a1.27,1.27,0,0,0,.25.76.88.88,0,0,0,.57.23h7.38a1.82,1.82,0,0,0,.54-.06.56.56,0,0,0,.29-.31,2.08,2.08,0,0,0,.11-.78V36.7a2.8,2.8,0,0,0-.1-.84.56.56,0,0,0-.29-.34,1.94,1.94,0,0,0-.55-.06H91.8a2.38,2.38,0,0,1,.83-1.74,2.58,2.58,0,0,1,1.76-.65h9.16a2.93,2.93,0,0,1,1.79.54,2.15,2.15,0,0,1,.73,1.83v7.85a2.15,2.15,0,0,1-.73,1.83,2.93,2.93,0,0,1-1.79.54H94.41A2.92,2.92,0,0,1,92.58,45.08Z"/><path class="cls-2" d="M107.33,36.81H110v2.66h8a.89.89,0,0,0,.85-.39,2,2,0,0,0,.23-1V36.79c0-.89-.32-1.33-1-1.33H107.33V33.07h11.42a3.19,3.19,0,0,1,1.34.3,2.76,2.76,0,0,1,1.08.89,2.33,2.33,0,0,1,.44,1.34v3.26a3.15,3.15,0,0,1-.41,1.53,2.89,2.89,0,0,1-1.06,1.08,3,3,0,0,1-1.51.4H110v3.79h-2.62Z"/><path class="cls-2" d="M123.66,45.08a2.08,2.08,0,0,1-.79-1.72V36.81h2.63v5.47a1.34,1.34,0,0,0,.25.76.91.91,0,0,0,.58.23h7.37a1.82,1.82,0,0,0,.54-.06.56.56,0,0,0,.29-.31,2.08,2.08,0,0,0,.11-.78V36.7a2.51,2.51,0,0,0-.1-.84.53.53,0,0,0-.29-.34,1.9,1.9,0,0,0-.55-.06H122.87a2.41,2.41,0,0,1,.83-1.74,2.58,2.58,0,0,1,1.76-.65h9.16a2.91,2.91,0,0,1,1.79.54,2.12,2.12,0,0,1,.73,1.83v7.85a2.12,2.12,0,0,1-.73,1.83,2.91,2.91,0,0,1-1.79.54h-9.14A2.87,2.87,0,0,1,123.66,45.08Z"/><path class="cls-2" d="M138.4,33.07H141v10.2H152v2.39H138.4Z"/><path class="cls-2" d="M159.9,33.07H163l-5.74,8.81h0v3.78h-2.63V41.88l-5.74-8.81H152l4,6.62Z"/><path class="cls-1" d="M73.39,61.44a2.81,2.81,0,0,1-1.08-.89,2.42,2.42,0,0,1-.45-1.34V51.69a2.39,2.39,0,0,1,.45-1.34,2.93,2.93,0,0,1,1.08-.9,3.14,3.14,0,0,1,1.33-.3h8.89a2.92,2.92,0,0,1,1.78.54,2.1,2.1,0,0,1,.74,1.83v2H83.61v-.87a2,2,0,0,0-.12-.73.54.54,0,0,0-.28-.28,1.44,1.44,0,0,0-.53-.07H75.34a.92.92,0,0,0-.6.24,1.16,1.16,0,0,0-.23.75c0,2.44,0,4.27,0,5.49a1.75,1.75,0,0,0,.23,1.08,1,1,0,0,0,.74.25h7.22a1.75,1.75,0,0,0,.53-.06.57.57,0,0,0,.28-.29,2,2,0,0,0,.12-.73v-1.1h2.52v2.2a2.1,2.1,0,0,1-.74,1.83,2.92,2.92,0,0,1-1.78.54H74.72A3.14,3.14,0,0,1,73.39,61.44Z"/><path class="cls-1" d="M87.39,49.15H90v10.2h10.92v2.39H87.39Z"/><path class="cls-1" d="M103,61.16a2.13,2.13,0,0,1-.79-1.72V49.15h2.64v9.21a1.19,1.19,0,0,0,.24.76.91.91,0,0,0,.59.23H113a1.82,1.82,0,0,0,.54-.06.52.52,0,0,0,.29-.31,2.08,2.08,0,0,0,.11-.78V49.15h2.51V59.37a2.12,2.12,0,0,1-.73,1.83,2.94,2.94,0,0,1-1.78.54h-9.15A2.88,2.88,0,0,1,103,61.16Z"/><path class="cls-1" d="M120.39,52.89v1.24h7.14a1,1,0,0,0,.74-.25,1.5,1.5,0,0,0,.23-1,2.73,2.73,0,0,0-.1-.89.6.6,0,0,0-.31-.36,2,2,0,0,0-.58-.07h-9.77V49.15h10.87a2.91,2.91,0,0,1,1.79.54,2.12,2.12,0,0,1,.73,1.83V54a1.45,1.45,0,0,1-.22.87A1.72,1.72,0,0,1,132,56.51v3.18c0,1.37-.83,2.05-2.38,2.05H117.74V52.89Zm8.8,6.21a1.75,1.75,0,0,0,.23-1.08,2.05,2.05,0,0,0-.24-1.18.91.91,0,0,0-.77-.31h-8v2.82h8A1,1,0,0,0,129.19,59.1Z"/></g></g></svg>