<svg xmlns="http://www.w3.org/2000/svg" viewBox="0 0 46.12 73.15"><defs><style>.cls-1{fill:#009030;}</style></defs><g id="Capa_2" data-name="Capa 2"><g id="Capa_1-2" data-name="Capa 1"><path d="M38.26,23.37C39,16.5,46.12,6.3,46.12,6.3L38,3.15,29.91,0s-1.63,12.35-5.73,17.9a17,17,0,0,1-6.77-3s0,2,6.24,4.6,7,2.71,7,2.71a74.05,74.05,0,0,0,7,2.71c6.33,2.31,7.71.82,7.71.82A16.91,16.91,0,0,1,38.26,23.37Z"/><path class="cls-1" d="M18.55,65.79A30.29,30.29,0,0,1,0,59.26l5.24-8.07a29.3,29.3,0,0,0,7.06,3.87,19.12,19.12,0,0,0,6.58,1.29,6.87,6.87,0,0,0,3.91-.88A2.76,2.76,0,0,0,24,53.13V53a2.32,2.32,0,0,0-.73-1.7,6.13,6.13,0,0,0-2-1.25c-.84-.35-1.79-.68-2.87-1s-2.2-.67-3.38-1a44.8,44.8,0,0,1-4.56-1.57A16.2,16.2,0,0,1,6.37,44a11.89,11.89,0,0,1-3-3.67A11.12,11.12,0,0,1,2.18,35v-.17A13,13,0,0,1,3.43,29a12.82,12.82,0,0,1,3.39-4.32,14.37,14.37,0,0,1,5-2.66A20.77,20.77,0,0,1,18,21.1a27.66,27.66,0,0,1,8.35,1.33,30.89,30.89,0,0,1,7.78,3.67l-4.67,8.47a38.8,38.8,0,0,0-6.3-2.94,16.3,16.3,0,0,0-5.4-1.09,5.57,5.57,0,0,0-3.39.85,2.56,2.56,0,0,0-1.13,2.13v.17A2.09,2.09,0,0,0,14,35.26a7.89,7.89,0,0,0,1.93,1.29,28.12,28.12,0,0,0,2.78,1.17c1,.38,2.17.75,3.35,1.13q2.27.72,4.6,1.73A19.24,19.24,0,0,1,30.82,43a12.34,12.34,0,0,1,3.06,3.55,10,10,0,0,1,1.21,5.08v.17a14.31,14.31,0,0,1-1.25,6.25,11.38,11.38,0,0,1-3.51,4.31A15.81,15.81,0,0,1,25.05,65,24.21,24.21,0,0,1,18.55,65.79Z"/><path d="M25.68,71.4,14.42,14.29a1.46,1.46,0,0,0-1.72-1.16,1.44,1.44,0,0,0-.94.62,1.47,1.47,0,0,0-.22,1.1L22.79,72a1.47,1.47,0,0,0,.63.94,1.44,1.44,0,0,0,.77.25,1.23,1.23,0,0,0,.33,0A1.47,1.47,0,0,0,25.68,71.4Z"/><circle cx="12.85" cy="13.47" r="4.38"/><path class="cls-1" d="M30.82,43a19.24,19.24,0,0,0-4.2-2.46q-2.34-1-4.6-1.73c-1.18-.38-2.3-.75-3.34-1.13a27.37,27.37,0,0,1-2.79-1.17A7.89,7.89,0,0,1,14,35.26a.34.34,0,0,1-.06-.06H11.81V22a14.32,14.32,0,0,0-5,2.66A12.82,12.82,0,0,0,3.43,29a13,13,0,0,0-1.25,5.84V35A11.12,11.12,0,0,0,3.35,40.3a11.89,11.89,0,0,0,3,3.67,16.2,16.2,0,0,0,4.16,2.42A44.8,44.8,0,0,0,15.09,48c1.18.38,2.31.73,3.38,1s2,.66,2.87,1a6.13,6.13,0,0,1,2,1.25A2.32,2.32,0,0,1,24,53v.16a2.76,2.76,0,0,1-1.25,2.34,6.87,6.87,0,0,1-3.91.88,19.12,19.12,0,0,1-6.58-1.29,29.3,29.3,0,0,1-7.06-3.87L0,59.26a30.29,30.29,0,0,0,18.55,6.53,24.21,24.21,0,0,0,6.5-.84,15.81,15.81,0,0,0,5.28-2.55,11.38,11.38,0,0,0,3.51-4.31,14.31,14.31,0,0,0,1.25-6.25v-.17a10,10,0,0,0-1.21-5.08A12.34,12.34,0,0,0,30.82,43Z"/></g></g></svg>